<svg id="Capa_4" data-name="Capa 4" xmlns="http://www.w3.org/2000/svg" viewBox="0 0 114.69 114.67"><defs><style>.cls-1{stroke:#000;stroke-miterlimit:10;stroke-width:8px;}</style></defs><path class="cls-1" d="M1316.19,566c-7.22,0-14.43.06-21.65,0-4.43,0-8.93-.17-13.12-1.77-9.84-3.76-16-10.74-17.74-21.26a70,70,0,0,1-.73-10.84c-.08-13.35,0-26.7,0-40,0-4.63.14-9.32,1.82-13.7,3.76-9.79,10.73-16,21.22-17.6a117.16,117.16,0,0,1,15.58-.81c9.53-.11,19.06,0,28.6,0a4.05,4.05,0,0,1,3,.9,3.53,3.53,0,0,1,1.17,3.65,3.49,3.49,0,0,1-2.83,2.73,9.89,9.89,0,0,1-1.72.13c-11.62,0-23.24,0-34.85.11a48.38,48.38,0,0,0-10,1c-7.48,1.71-13.47,8.83-14.13,16.63-.38,4.38-.51,8.78-.53,13.17-.06,11.85-.06,23.69.08,35.54a57.07,57.07,0,0,0,1,10.1c1.14,5.81,7.5,13.52,16.72,14.19q6.81.51,13.64.53c13.31.05,26.63.09,39.94-.07,10.54-.12,19.6-9.3,19.86-19.85.08-3.55,0-7.1.07-10.65,0-2.86,2.52-4.68,5-3.71a3.14,3.14,0,0,1,2.29,2.8c0,6,.68,12-.89,18A28.13,28.13,0,0,1,1341.54,566c-8.45.13-16.9,0-25.35,0Z" transform="translate(-1258.65 -455.66)"/><path class="cls-1" d="M1331.85,566.34c-2.63,0-5.24,0-7.82,0l-7.84,0-.25,0h-6.19c-5,0-10.14,0-15.21,0-4.8,0-9.11-.22-13.21-1.79-10.2-3.89-16.22-11.11-17.9-21.45a71.81,71.81,0,0,1-.73-10.88c-.07-11.8-.06-24.52,0-40.05,0-5,.18-9.47,1.84-13.78,3.94-10.26,11.15-16.23,21.41-17.76a103.86,103.86,0,0,1,14.08-.79l1.54,0c6.43-.07,13-.06,19.28,0h9.34a4.34,4.34,0,0,1,3.16,1,3.76,3.76,0,0,1,1.24,3.9,3.72,3.72,0,0,1-3,2.9,8.9,8.9,0,0,1-1.77.13l-10.3,0c-8,0-16.36,0-24.55.1a47.51,47.51,0,0,0-9.92,1c-7.3,1.66-13.29,8.71-13.94,16.4-.34,3.93-.51,8.23-.53,13.16-.07,14.24,0,25.19.08,35.52a55.61,55.61,0,0,0,1,10.06c1,5.23,7,13.3,16.49,14,4.49.33,9.07.51,13.62.53,14.22.05,27,.08,39.94-.07,10.37-.12,19.35-9.1,19.61-19.61,0-2,0-4.05,0-6,0-1.54,0-3.08,0-4.62a4.3,4.3,0,0,1,1.82-3.58,3.82,3.82,0,0,1,3.54-.36,3.36,3.36,0,0,1,2.45,3c0,1.37,0,2.77.07,4.13.12,4.57.25,9.3-1,13.9a28.31,28.31,0,0,1-26.75,21.06C1338.33,566.32,1335.08,566.34,1331.85,566.34Zm-15.41-.55,7.6,0c5.73,0,11.67.05,17.5,0a27.83,27.83,0,0,0,26.28-20.69c1.2-4.53,1.07-9.22,1-13.76,0-1.36-.07-2.76-.07-4.14a3,3,0,0,0-2.13-2.57,3.29,3.29,0,0,0-3.08.31,3.79,3.79,0,0,0-1.6,3.17c0,1.54,0,3.07,0,4.61,0,2,0,4,0,6-.26,10.77-9.47,20-20.11,20.1-12.89.15-25.72.12-39.94.07-4.57,0-9.16-.2-13.66-.53-8.86-.65-15.69-8-16.94-14.39a56.7,56.7,0,0,1-1-10.15c-.12-10.33-.15-21.29-.08-35.54,0-4.94.19-9.25.53-13.19.67-7.9,6.83-15.14,14.33-16.85a47.82,47.82,0,0,1,10-1.05c8.18-.1,16.51-.1,24.55-.1l10.29,0a8.58,8.58,0,0,0,1.68-.12,3.21,3.21,0,0,0,2.64-2.54A3.3,3.3,0,0,0,1333,461a3.81,3.81,0,0,0-2.82-.83h-9.34c-6.32,0-12.85,0-19.28,0l-1.53,0a102.57,102.57,0,0,0-14,.79c-10.08,1.49-17.15,7.36-21,17.44-1.62,4.23-1.78,8.66-1.8,13.61-.07,15.52-.08,28.24,0,40a70.63,70.63,0,0,0,.73,10.8c1.64,10.15,7.56,17.24,17.58,21.07,4,1.54,8.29,1.7,13,1.75,5.06.06,10.22,0,15.2,0h6.44Z" transform="translate(-1258.65 -455.66)"/><path class="cls-1" d="M1315.82,522.76c5.66-5.67,11.22-11.24,16.79-16.8q12.44-12.45,24.87-24.89a3.88,3.88,0,0,1,3.63-1.32,3.69,3.69,0,0,1,2.17,6,10.89,10.89,0,0,1-.88.92q-21.57,21.57-43.13,43.13c-2.34,2.34-4,2.39-6.49.2q-9.37-8.18-18.73-16.38a3.77,3.77,0,0,1-.67-5.43c1.43-1.67,3.7-1.75,5.55-.14l15.59,13.64Z" transform="translate(-1258.65 -455.66)"/><path class="cls-1" d="M1316,531.81a5.31,5.31,0,0,1-3.38-1.66l-18.74-16.38a4,4,0,0,1-.69-5.78,3.81,3.81,0,0,1,2.63-1.38,4.54,4.54,0,0,1,3.27,1.21q5.25,4.57,10.48,9.17l5.12,4.47.87.75.24.21,3.74-3.74,12.89-12.9,7-7,17.91-17.92a4.11,4.11,0,0,1,3.85-1.4,3.91,3.91,0,0,1,3,2.5,4,4,0,0,1-.64,3.87,10.28,10.28,0,0,1-.71.76l-.19.18-43.14,43.13C1318.19,531.19,1317.11,531.81,1316,531.81Zm-19.91-24.71h-.23a3.29,3.29,0,0,0-2.29,1.2,3.55,3.55,0,0,0,.64,5.09l18.73,16.37c2.41,2.11,3.9,2.06,6.15-.18l43.32-43.32a7.55,7.55,0,0,0,.68-.71,3.48,3.48,0,0,0,.56-3.38,3.39,3.39,0,0,0-2.58-2.18,3.61,3.61,0,0,0-3.41,1.25q-8.94,9-17.91,17.92l-7,7L1319.9,519l-4.07,4.07-.6-.51-.87-.75-5.12-4.48-10.48-9.16A4.14,4.14,0,0,0,1296.09,507.1Z" transform="translate(-1258.65 -455.66)"/></svg>