<svg id="Capa_1" data-name="Capa 1" xmlns="http://www.w3.org/2000/svg" viewBox="0 0 684.97 306.9"><polygon points="0 199.18 12.42 199.18 12.42 268.38 16.84 268.38 16.84 199.18 29.26 199.18 29.26 194.76 0 194.76 0 199.18"/><path d="M206.75,541.31a15.62,15.62,0,0,0-15.52,15.52v58.1h4.42V588.31h11.1a11.18,11.18,0,0,1,11.1,11.11v15.51h4.42V599.42a14.87,14.87,0,0,0-4.6-10.92,17.46,17.46,0,0,0-2.94-2.37,15.89,15.89,0,0,0,2.93-2.36,14.9,14.9,0,0,0,4.61-11v-16a15.73,15.73,0,0,0-15.52-15.52Zm11.1,31.49a10.78,10.78,0,0,1-3.26,7.87,11,11,0,0,1-7.84,3.23h-11.1V556.83a11.1,11.1,0,0,1,11.1-11.11,11.18,11.18,0,0,1,11.1,11.11Z" transform="translate(-157.51 -346.55)"/><path d="M260.44,599.42a10.79,10.79,0,0,1-3.26,7.87,11.08,11.08,0,0,1-18.94-7.87V541.31h-4.42v58.11a15.52,15.52,0,0,0,31,0V541.31h-4.42Z" transform="translate(-157.51 -346.55)"/><path d="M291.93,541.31a15.62,15.62,0,0,0-15.52,15.52v16a15,15,0,0,0,4.55,11,16.67,16.67,0,0,0,2.93,2.36A17.4,17.4,0,0,0,281,588.5a15.48,15.48,0,1,0,26.49,10.92V598.1H303v1.32a10.79,10.79,0,0,1-3.26,7.87,11.11,11.11,0,0,1-15.72-15.7,10.79,10.79,0,0,1,7.88-3.28h12V583.9h-12a11,11,0,0,1-11.1-11.1v-16a11.1,11.1,0,0,1,11.1-11.11A11.18,11.18,0,0,1,303,556.83v8.41h4.42v-8.41a15.73,15.73,0,0,0-15.52-15.52Z" transform="translate(-157.51 -346.55)"/><path d="M355.81,541.31a15.6,15.6,0,0,0-15.51,15.52v42.59a15.52,15.52,0,0,0,31,0V591h-4.41v8.42a10.79,10.79,0,0,1-3.26,7.87,11.09,11.09,0,0,1-19-7.87V556.83a10.92,10.92,0,0,1,3.22-7.83,11.14,11.14,0,0,1,19,7.83v8.41h4.41v-8.41a15.71,15.71,0,0,0-15.52-15.52Z" transform="translate(-157.51 -346.55)"/><path d="M398.4,541.31a15.6,15.6,0,0,0-15.51,15.52v42.59a15.52,15.52,0,0,0,31,0V556.83a15.71,15.71,0,0,0-15.52-15.52Zm11.11,58.11a10.79,10.79,0,0,1-3.26,7.87,11.09,11.09,0,0,1-18.95-7.87V556.83a11.1,11.1,0,0,1,11.1-11.11,11.2,11.2,0,0,1,11.11,11.11Z" transform="translate(-157.51 -346.55)"/><polygon points="272.38 194.76 267.96 194.76 267.96 268.38 291.9 268.38 291.9 263.97 272.38 263.97 272.38 194.76"/><path d="M469.39,541.31a15.62,15.62,0,0,0-15.52,15.52v42.59a15.52,15.52,0,0,0,31,0V556.83a15.73,15.73,0,0,0-15.52-15.52Zm11.1,58.11a10.79,10.79,0,0,1-3.26,7.87,11.08,11.08,0,0,1-18.94-7.87V556.83a11.08,11.08,0,0,1,11.1-11.11,11.18,11.18,0,0,1,11.1,11.11Z" transform="translate(-157.51 -346.55)"/><path d="M512,541.31a15.62,15.62,0,0,0-15.52,15.52v58.1h4.42V588.31H512a11.18,11.18,0,0,1,11.1,11.11v15.51h4.42V599.42a14.84,14.84,0,0,0-4.61-10.92,17,17,0,0,0-2.93-2.37,16.22,16.22,0,0,0,2.93-2.36,14.9,14.9,0,0,0,4.61-11v-16A15.73,15.73,0,0,0,512,541.31Zm11.1,31.49a10.78,10.78,0,0,1-3.26,7.87A11,11,0,0,1,512,583.9h-11.1V556.83A11.08,11.08,0,0,1,512,545.72a11.18,11.18,0,0,1,11.1,11.11Z" transform="translate(-157.51 -346.55)"/><path d="M554.57,541.31a15.62,15.62,0,0,0-15.52,15.52v8a15.53,15.53,0,0,0,15.52,15.52,11.17,11.17,0,0,1,11.1,11.1v8a10.79,10.79,0,0,1-3.26,7.87,11.08,11.08,0,0,1-18.94-7.87V591h-4.42v8.42a15.52,15.52,0,0,0,31,0v-8a15.73,15.73,0,0,0-15.52-15.52,11,11,0,0,1-11.1-11.1v-8a11.08,11.08,0,0,1,11.1-11.11,11.18,11.18,0,0,1,11.1,11.11v8.41h4.42v-8.41a15.73,15.73,0,0,0-15.52-15.52Z" transform="translate(-157.51 -346.55)"/><path d="M618.45,541.31a15.6,15.6,0,0,0-15.51,15.52v8a15.52,15.52,0,0,0,15.51,15.52,11.18,11.18,0,0,1,11.11,11.1v8a10.79,10.79,0,0,1-3.26,7.87,11.08,11.08,0,0,1-18.95-7.87V591h-4.41v8.42a15.52,15.52,0,0,0,31,0v-8a15.71,15.71,0,0,0-15.52-15.52,11,11,0,0,1-11.1-11.1v-8a10.93,10.93,0,0,1,3.22-7.83,11.14,11.14,0,0,1,19,7.83v8.41H634v-8.41a15.71,15.71,0,0,0-15.52-15.52Z" transform="translate(-157.51 -346.55)"/><polygon points="480.91 199.18 493.33 199.18 493.33 268.38 497.75 268.38 497.75 199.18 510.17 199.18 510.17 194.76 480.91 194.76 480.91 199.18"/><path d="M702.31,572.8a10.78,10.78,0,0,1-3.26,7.87,11.08,11.08,0,0,1-18.94-7.87V541.31h-4.42V572.8a15,15,0,0,0,4.54,11A14.83,14.83,0,0,0,689,588.2v26.73h4.42V588.2a14.69,14.69,0,0,0,8.7-4.43,14.9,14.9,0,0,0,4.61-11V541.31h-4.42Z" transform="translate(-157.51 -346.55)"/><polygon points="565.19 194.76 560.77 194.76 560.77 268.38 584.71 268.38 584.71 263.97 565.19 263.97 565.19 194.76"/><rect x="592.71" y="194.76" width="4.42" height="73.62"/><path d="M781.72,541.31a15.6,15.6,0,0,0-15.52,15.52v58.1h4.41v-58.1a10.93,10.93,0,0,1,3.22-7.83,11,11,0,0,1,15.71,0,10.69,10.69,0,0,1,3.28,7.83v58.1h4.41v-58.1a15.71,15.71,0,0,0-15.51-15.52Z" transform="translate(-157.51 -346.55)"/><path d="M842.49,583.9h-23v4.41h12a4.2,4.2,0,0,1,4,4v7.1a10.79,10.79,0,0,1-3.26,7.87,11.09,11.09,0,0,1-18.95-7.87V556.83a10.93,10.93,0,0,1,3.22-7.83,11,11,0,0,1,15.71,0,10.69,10.69,0,0,1,3.28,7.83v8.41h4.41v-8.41a15.48,15.48,0,0,0-26.49-10.92,15,15,0,0,0-4.54,10.92v42.59a15.5,15.5,0,0,0,15.52,15.51,14.87,14.87,0,0,0,10.87-4.51c.22-.2.43-.4.63-.61l.64,5.12h4.35l-1-15.51v-7.1a8.11,8.11,0,0,0-1-4h3.69Z" transform="translate(-157.51 -346.55)"/><path d="M429.68,461.28c4.33,1,8.65,3,11.59,6.5s3.34,8.5,6.49,11.64a21.53,21.53,0,0,0,5.31,3.88,12.05,12.05,0,0,0,6.12,1.78,3,3,0,0,0,2.44-1.39,7,7,0,0,0,.91-2.95,33.07,33.07,0,0,0-.12-6.59c-.44-4.44-1.14-8.87-1.74-13.32s-1.18-8.92-1.58-13.4a149.22,149.22,0,0,1-.21-27.07,107.13,107.13,0,0,1,17.78-50.88c1.21-1.93,2.67-3.68,4-5.51s2.83-3.52,4.32-5.26a49.28,49.28,0,0,1,10.3-9.29,18.07,18.07,0,0,1,6.82-2.72,11.37,11.37,0,0,1,7.56,1.39,17,17,0,0,1,5.35,5.15,35.5,35.5,0,0,1,3.35,6.24c.91,2.14,1.64,4.33,2.32,6.49l1,3.34c.23,1.15.54,2.28.7,3.44a39.47,39.47,0,0,1,.53,7,54.54,54.54,0,0,1-.67,6.95,114.55,114.55,0,0,0-1.75,13.12,51.4,51.4,0,0,0,1,12.88,44.09,44.09,0,0,0,4.49,12c1,1.91,2.19,3.77,3.37,5.68a47.84,47.84,0,0,1,3.4,6.15,19.2,19.2,0,0,1,1.14,3.63,15.12,15.12,0,0,1,.2,3.92,17.41,17.41,0,0,1-2.38,7.12,37,37,0,0,1-9.36,10.65c-7.27,5.84-15.49,10-23.91,13.49a117,117,0,0,1-13,4.4c-2.18.62-4.36,1.18-6.44,1.81a15.86,15.86,0,0,0-5.27,2.34,2.56,2.56,0,0,0-.93,1.52,1.74,1.74,0,0,0,.06.73,5.44,5.44,0,0,0,.47,1.08,56.91,56.91,0,0,0,3.62,5.28c2.67,3.62,5.31,7.31,7.83,11.06,1.25,1.89,2.51,3.75,3.72,5.69.61,1,1.22,2,1.8,3a18.21,18.21,0,0,1,.83,1.76,6.25,6.25,0,0,1,.37,1.21,2.6,2.6,0,0,1,.06.44,2.4,2.4,0,0,1,0,.55,3,3,0,0,1-.13.73,2.94,2.94,0,0,1-.48.93,2.84,2.84,0,0,1-1.83,1,3.07,3.07,0,0,1-.66,0,4.77,4.77,0,0,1-.48,0,7.39,7.39,0,0,1-1.25-.37,18.35,18.35,0,0,1-1.77-.85c-1.07-.59-2.06-1.2-3-1.84-1.95-1.27-3.77-2.58-5.61-3.88-3.68-2.62-7.33-5.33-10.82-8.36a40.92,40.92,0,0,1-5-5.08,11.42,11.42,0,0,1-2.07-3.66,6.28,6.28,0,0,1-.25-1.38c0-.28,0-.56,0-.83a5.28,5.28,0,0,1,.22-.87,4.36,4.36,0,0,1,.95-1.51,5.18,5.18,0,0,1,1.23-.9,8.13,8.13,0,0,1,2.18-.76,15.52,15.52,0,0,1,1.95-.28,29.64,29.64,0,0,1,3.64-.05c1.18,0,2.34.15,3.5.28s2.32.29,3.47.48a55.17,55.17,0,0,1,13.37,4.09c8.55,3.78,15.78,9.58,23.06,14.5a50.67,50.67,0,0,0,11.38,6A27.19,27.19,0,0,0,535.49,515c8.34-1,16.08-5.71,22.08-11.81a36.82,36.82,0,0,0,7.34-10.34,29.71,29.71,0,0,0,2.65-12.24,33.58,33.58,0,0,0-2.21-12.43,28.43,28.43,0,0,0-2.86-5.57l-.92-1.23c-.3-.42-.67-.75-1-1.13a8.53,8.53,0,0,0-1.07-1l-.55-.48-.7-.54a9.65,9.65,0,0,1-2.71-3.14,6.85,6.85,0,0,1-.6-4.54,9.78,9.78,0,0,1,1.82-3.73,23.21,23.21,0,0,1,2.48-2.71c1.69-1.61,3.48-3,5-4.48a11.58,11.58,0,0,0,3-4.88c1.06-3.67,0-8.11-.79-12.49a105.86,105.86,0,0,1-1.91-13.51,79.35,79.35,0,0,1,.19-13.7,100.2,100.2,0,0,1,2.38-13.44c.52-2.19,1.08-4.37,1.48-6.49s.56-4.26-.35-5.42a3.4,3.4,0,0,0-.89-.78,8.46,8.46,0,0,0-1.21-.58,9.73,9.73,0,0,0-2.9-.41,23.26,23.26,0,0,0-6.25,1,67.35,67.35,0,0,0-12.18,5A80.67,80.67,0,0,0,533.66,381a117.57,117.57,0,0,0-19.07,18.58A189.59,189.59,0,0,0,499,421.4c-4.71,7.6-9,15.48-13,23.52S478.4,461.13,475,469.44a309.82,309.82,0,0,1,23-48.68,193.67,193.67,0,0,1,15.25-22.28,120.48,120.48,0,0,1,19-19.27,80.05,80.05,0,0,1,11.41-7.48,69.85,69.85,0,0,1,12.59-5.38,26,26,0,0,1,7-1.18,12.57,12.57,0,0,1,3.74.51,11.53,11.53,0,0,1,1.83.84,6.39,6.39,0,0,1,1.62,1.43,6.83,6.83,0,0,1,1.27,4,19.16,19.16,0,0,1-.32,3.63c-.4,2.3-.94,4.48-1.43,6.66a96,96,0,0,0-2.16,13.07,77.23,77.23,0,0,0,0,13.17,105.63,105.63,0,0,0,2,13.1c.43,2.2.92,4.41,1.2,6.75a18.79,18.79,0,0,1-.32,7.36,15.33,15.33,0,0,1-3.88,6.47c-1.7,1.72-3.44,3.11-5,4.61s-2.88,3.1-3.16,4.53a3,3,0,0,0,.29,2,6.07,6.07,0,0,0,1.7,1.86A17.4,17.4,0,0,1,562,456.2a11.22,11.22,0,0,1,1.37,1.29c.41.46.87.9,1.23,1.39l1.1,1.46a31.76,31.76,0,0,1,3.3,6.36,37.33,37.33,0,0,1,2.53,13.9,33.63,33.63,0,0,1-2.95,13.87,41,41,0,0,1-8.1,11.54,48.46,48.46,0,0,1-11.08,8.57A37,37,0,0,1,536,519.13a31.47,31.47,0,0,1-14.22-1.39,54.61,54.61,0,0,1-12.41-6.43c-3.8-2.53-7.41-5.2-11.09-7.64a75.35,75.35,0,0,0-11.38-6.41,50.92,50.92,0,0,0-12.32-3.73c-1.06-.17-2.12-.33-3.19-.42s-2.15-.22-3.2-.25a26.26,26.26,0,0,0-3.09.05,7.25,7.25,0,0,0-2.37.53c-.22.13-.09.09-.06,0s0-.05.08.23a7.36,7.36,0,0,0,1.28,2.12,36.76,36.76,0,0,0,4.46,4.45c3.29,2.84,6.88,5.47,10.49,8.06,1.83,1.29,3.64,2.61,5.45,3.79.9.6,1.82,1.17,2.71,1.66.44.23.89.47,1.26.62a3.55,3.55,0,0,0,.35.12h0l-.25,0a1.73,1.73,0,0,0-1.11.66,1.56,1.56,0,0,0-.3.55,1.16,1.16,0,0,0-.06.32v.13s0,.05,0,0a2.79,2.79,0,0,0-.13-.4,12.84,12.84,0,0,0-.6-1.28c-.49-.9-1-1.84-1.63-2.77-1.16-1.86-2.4-3.72-3.63-5.58-2.46-3.71-5-7.32-7.67-10.94a58.48,58.48,0,0,1-3.95-5.83,9.76,9.76,0,0,1-.82-2,6.24,6.24,0,0,1-.16-2.6,7.75,7.75,0,0,1,.88-2.34c.23-.33.46-.67.71-1s.55-.55.83-.82a19.4,19.4,0,0,1,6.9-3.19c2.22-.66,4.38-1.22,6.52-1.81a113,113,0,0,0,12.53-4.2c8.14-3.33,16.11-7.36,22.88-12.75a33.26,33.26,0,0,0,8.35-9.38,13.29,13.29,0,0,0,1.92-5.51,11.2,11.2,0,0,0-.13-2.77,15.73,15.73,0,0,0-.87-2.79c-1.63-3.72-4.42-7.43-6.56-11.52a47.65,47.65,0,0,1-4.84-13.13,55,55,0,0,1-1-13.89,109.4,109.4,0,0,1,1.88-13.53,50.94,50.94,0,0,0,.7-6.43,35.65,35.65,0,0,0-.41-6.36c-.13-1.06-.41-2.11-.6-3.16l-.86-3.14a64.63,64.63,0,0,0-2.14-6.2,31.24,31.24,0,0,0-2.93-5.63A13.58,13.58,0,0,0,508,351a8.09,8.09,0,0,0-5.39-1,15.09,15.09,0,0,0-5.6,2.2,46.15,46.15,0,0,0-9.7,8.58c-1.45,1.65-2.94,3.34-4.28,5.09s-2.77,3.44-4,5.3c-10.18,14.48-16.11,31.78-17.93,49.45a147.85,147.85,0,0,0-.31,26.7c.31,4.45.79,8.9,1.31,13.35s1.14,8.9,1.5,13.4a34,34,0,0,1,0,6.84,8,8,0,0,1-1.14,3.39,4,4,0,0,1-1.4,1.28,4.42,4.42,0,0,1-1.81.49,9,9,0,0,1-3.48-.57,19.21,19.21,0,0,1-3.12-1.44,21.79,21.79,0,0,1-5.42-4.14,16.93,16.93,0,0,1-3.26-6c-.39-1.05-.78-2.09-1.25-3.1A15.74,15.74,0,0,0,441,468C438.22,464.49,434,462.42,429.68,461.28Z" transform="translate(-157.51 -346.55)"/><path d="M157.51,645.34c0-4.44,2.43-8.12,7.5-8.12a6.93,6.93,0,0,1,6.75,4.45l-2.26.89c-.66-2.18-2.3-3-4.51-3-3.5,0-5.1,2.47-5.1,5.73s1.52,5.92,5.1,5.92a4.43,4.43,0,0,0,4.55-3.09l2.24.91a7,7,0,0,1-6.79,4.47C160,653.45,157.51,649.78,157.51,645.34Z" transform="translate(-157.51 -346.55)"/><path d="M173.4,645.34c0-4.3,2.38-8.09,7.49-8.09s7.5,3.79,7.5,8.09-2.38,8.11-7.5,8.11S173.4,649.64,173.4,645.34Zm12.45,0c0-3.18-1.38-6-5-6s-5,2.78-5,6,1.39,6,5,6S185.85,648.54,185.85,645.34Z" transform="translate(-157.51 -346.55)"/><path d="M195.23,637.46h1.85l6.14,15.78h-2.59l-1.28-3.55H193l-1.31,3.55h-2.62Zm3.36,10.16L196.17,641l-2.42,6.67Z" transform="translate(-157.51 -346.55)"/><path d="M203.91,645.34c0-4.44,2.43-8.12,7.5-8.12a6.93,6.93,0,0,1,6.75,4.45l-2.26.89c-.66-2.18-2.3-3-4.51-3-3.5,0-5.1,2.47-5.1,5.73s1.52,5.92,5.1,5.92a4.43,4.43,0,0,0,4.55-3.09l2.24.91a7,7,0,0,1-6.79,4.47C206.36,653.45,203.91,649.78,203.91,645.34Z" transform="translate(-157.51 -346.55)"/><path d="M221.07,637.46h2.4v6.77h7.37v-6.77h2.41v15.78h-2.41v-6.8h-7.37v6.8h-2.4Z" transform="translate(-157.51 -346.55)"/><path d="M237.62,637.46H240v15.78h-2.41Z" transform="translate(-157.51 -346.55)"/><path d="M256.18,637.46v15.78h-2.43l-7-11.84v11.84h-2.31V637.46h2.41l7,11.79V637.46Z" transform="translate(-157.51 -346.55)"/><path d="M259.48,645.34c0-4.44,2.42-8.12,7.5-8.12a6.92,6.92,0,0,1,6.72,4.45l-2.13.89a4.52,4.52,0,0,0-4.61-3.24c-3.5,0-5.1,2.66-5.1,5.92s1.52,6.06,5.1,6.06c2.6,0,4.39-1.42,4.58-4.1l0-.42h-3.65v-1.94h6v8.4h-1.91l-.21-2.42a5.34,5.34,0,0,1-4.88,2.63C261.93,653.45,259.48,649.78,259.48,645.34Z" transform="translate(-157.51 -346.55)"/><path d="M283.34,637.46h4.47c5.33,0,8.16,2.88,8.16,8,0,4.92-2.91,7.77-8.18,7.77h-4.45ZM287.56,651c3.72,0,6-1.58,6-5.66s-1.73-5.7-5.79-5.7h-2V651Z" transform="translate(-157.51 -346.55)"/><path d="M299.26,637.46H309.7v2.21h-8v4.56h7.39v2.21h-7.39V651h8v2.27H299.26Z" transform="translate(-157.51 -346.55)"/><path d="M318.89,637.46h2.41v15.78h-2.41Z" transform="translate(-157.51 -346.55)"/><path d="M341.31,637.46v15.78H339V640.77l-4.33,11.13h-2.34L328,640.77v12.47h-2.31V637.46h3.25l4.56,11.75,4.56-11.75Z" transform="translate(-157.51 -346.55)"/><path d="M350,637.46h1.85L358,653.24h-2.59l-1.29-3.55h-6.34l-1.31,3.55h-2.62Zm3.35,10.16L351,641l-2.42,6.67Z" transform="translate(-157.51 -346.55)"/><path d="M358.69,645.34c0-4.44,2.41-8.12,7.5-8.12a6.92,6.92,0,0,1,6.72,4.45l-2.13.89a4.52,4.52,0,0,0-4.62-3.24c-3.49,0-5.09,2.66-5.09,5.92s1.52,6.06,5.09,6.06c2.61,0,4.39-1.42,4.58-4.1l.06-.42h-3.65v-1.94h6v8.4h-1.91l-.21-2.42a5.35,5.35,0,0,1-4.89,2.63C361.14,653.45,358.69,649.78,358.69,645.34Z" transform="translate(-157.51 -346.55)"/><path d="M376.93,637.46h10.45v2.21h-8.05v4.56h7.4v2.21h-7.4V651h8.05v2.27H376.93Z" transform="translate(-157.51 -346.55)"/><path d="M402.71,637.46v15.78h-2.42l-7-11.84v11.84H391V637.46h2.41l7.05,11.79V637.46Z" transform="translate(-157.51 -346.55)"/><path d="M412.28,647.87a2.66,2.66,0,1,1,2.66,2.64A2.67,2.67,0,0,1,412.28,647.87Z" transform="translate(-157.51 -346.55)"/><path d="M426.07,645.34c0-4.44,2.42-8.12,7.49-8.12a6.93,6.93,0,0,1,6.75,4.45l-2.26.89c-.66-2.18-2.3-3-4.51-3-3.5,0-5.09,2.47-5.09,5.73s1.52,5.92,5.09,5.92a4.45,4.45,0,0,0,4.56-3.09l2.23.91a7,7,0,0,1-6.79,4.47C428.51,653.45,426.07,649.78,426.07,645.34Z" transform="translate(-157.51 -346.55)"/><path d="M442,645.34c0-4.3,2.38-8.09,7.5-8.09s7.49,3.79,7.49,8.09-2.38,8.11-7.49,8.11S442,649.64,442,645.34Zm12.46,0c0-3.18-1.39-6-5-6s-5,2.78-5,6,1.38,6,5,6S454.41,648.54,454.41,645.34Z" transform="translate(-157.51 -346.55)"/><path d="M460.22,637.46h2.41V651h6.9v2.27h-9.31Z" transform="translate(-157.51 -346.55)"/><path d="M470.47,645.34c0-4.3,2.38-8.09,7.49-8.09s7.5,3.79,7.5,8.09-2.38,8.11-7.5,8.11S470.47,649.64,470.47,645.34Zm12.45,0c0-3.18-1.38-6-5-6s-5,2.78-5,6,1.39,6,5,6S482.92,648.54,482.92,645.34Z" transform="translate(-157.51 -346.55)"/><path d="M488.74,637.46h4.87c3,0,5.4,1.65,5.4,4.55a4.2,4.2,0,0,1-3.18,4.1l4.39,7.13h-2.74l-4-6.88h-2.37v6.87h-2.4Zm5.08,6.94c1.78,0,2.81-.92,2.81-2.34s-1.14-2.45-3-2.45h-2.47v4.79Z" transform="translate(-157.51 -346.55)"/><path d="M502.88,637.46h2.4v15.78h-2.4Z" transform="translate(-157.51 -346.55)"/><path d="M525.3,637.46v15.78H523V640.77l-4.34,11.13h-2.33L512,640.77v12.47h-2.32V637.46h3.25l4.57,11.75,4.56-11.75Z" transform="translate(-157.51 -346.55)"/><path d="M529.68,637.46h10.44v2.21h-8v4.56h7.39v2.21h-7.39V651h8v2.27H529.68Z" transform="translate(-157.51 -346.55)"/><path d="M547.26,639.61h-5.14v-2.15h12.67v2.15h-5.13v13.63h-2.4Z" transform="translate(-157.51 -346.55)"/><path d="M557.37,637.46h4.87c3,0,5.39,1.65,5.39,4.55a4.19,4.19,0,0,1-3.17,4.1l4.39,7.13H566.1l-4-6.88h-2.37v6.87h-2.4Zm5.08,6.94c1.78,0,2.8-.92,2.8-2.34s-1.14-2.45-3-2.45h-2.47v4.79Z" transform="translate(-157.51 -346.55)"/><path d="M571.51,637.46h2.4v15.78h-2.4Zm2.56-4.6h2.46l-3.25,3.21h-1.7Z" transform="translate(-157.51 -346.55)"/><path d="M582.62,637.46h1.85l6.14,15.78H588l-1.29-3.55h-6.34l-1.31,3.55h-2.62ZM586,647.62,583.56,641l-2.42,6.67Z" transform="translate(-157.51 -346.55)"/><path d="M598.33,647.87a2.65,2.65,0,1,1,2.66,2.64A2.66,2.66,0,0,1,598.33,647.87Z" transform="translate(-157.51 -346.55)"/><path d="M613.19,637.46h4.75c3.21,0,5.49,1.67,5.49,4.6s-2.27,4.51-5.49,4.51h-2.36v6.67h-2.39Zm4.75,6.87c2.13,0,3.11-.8,3.11-2.27s-1-2.36-3.11-2.36h-2.36v4.63Z" transform="translate(-157.51 -346.55)"/><path d="M626.51,637.46H637v2.21h-8v4.56h7.39v2.21h-7.39V651h8v2.27H626.51Z" transform="translate(-157.51 -346.55)"/><path d="M640.53,637.46h4.87c3,0,5.39,1.65,5.39,4.55a4.19,4.19,0,0,1-3.17,4.1l4.39,7.13h-2.75l-4-6.88h-2.37v6.87h-2.4Zm5.08,6.94c1.77,0,2.8-.92,2.8-2.34s-1.14-2.45-3-2.45H643v4.79Z" transform="translate(-157.51 -346.55)"/><path d="M653.17,648.87l2.38-.6a3.25,3.25,0,0,0,3.52,3c1.84,0,2.91-1,2.91-2.33,0-3.56-7.79-2.38-7.79-7.45,0-2.68,2.16-4.24,4.75-4.24a5.11,5.11,0,0,1,4.7,2.69l-2,1.23a3.06,3.06,0,0,0-2.78-1.79,2.09,2.09,0,0,0-2.28,2c0,3.24,7.79,2.13,7.79,7.36,0,2.88-2.39,4.68-5.36,4.68C656.26,653.41,653.66,651.88,653.17,648.87Z" transform="translate(-157.51 -346.55)"/><path d="M666.25,645.34c0-4.3,2.38-8.09,7.49-8.09s7.5,3.79,7.5,8.09-2.38,8.11-7.5,8.11S666.25,649.64,666.25,645.34Zm12.45,0c0-3.18-1.38-6-5-6s-5,2.78-5,6,1.38,6,5,6S678.7,648.54,678.7,645.34Z" transform="translate(-157.51 -346.55)"/><path d="M696.29,637.46v15.78h-2.43l-7-11.84v11.84h-2.32V637.46h2.42l7,11.79V637.46Z" transform="translate(-157.51 -346.55)"/><path d="M705,637.46h1.84L713,653.24h-2.59l-1.28-3.55h-6.35l-1.3,3.55h-2.63Zm3.35,10.16L705.94,641l-2.43,6.67Z" transform="translate(-157.51 -346.55)"/><path d="M715.52,637.46h2.4V651h6.9v2.27h-9.3Z" transform="translate(-157.51 -346.55)"/><path d="M731.55,648.87l2.38-.6a3.24,3.24,0,0,0,3.52,3c1.84,0,2.91-1,2.91-2.33,0-3.56-7.8-2.38-7.8-7.45,0-2.68,2.17-4.24,4.76-4.24a5.09,5.09,0,0,1,4.69,2.69l-2,1.23a3.06,3.06,0,0,0-2.79-1.79,2.08,2.08,0,0,0-2.27,2c0,3.24,7.79,2.13,7.79,7.36,0,2.88-2.39,4.68-5.36,4.68C734.64,653.41,732,651.88,731.55,648.87Z" transform="translate(-157.51 -346.55)"/><path d="M745.79,637.46h2.4v6.77h7.37v-6.77H758v15.78h-2.4v-6.8h-7.37v6.8h-2.4Z" transform="translate(-157.51 -346.55)"/><path d="M761.25,645.34c0-4.3,2.38-8.09,7.49-8.09s7.5,3.79,7.5,8.09-2.38,8.11-7.5,8.11S761.25,649.64,761.25,645.34Zm12.45,0c0-3.18-1.38-6-5-6s-5,2.78-5,6,1.39,6,5,6S773.7,648.54,773.7,645.34Z" transform="translate(-157.51 -346.55)"/><path d="M779.52,637.46h4.75c3.2,0,5.48,1.67,5.48,4.6s-2.26,4.51-5.48,4.51h-2.36v6.67h-2.39Zm4.75,6.87c2.13,0,3.1-.8,3.1-2.27s-1-2.36-3.1-2.36h-2.36v4.63Z" transform="translate(-157.51 -346.55)"/><path d="M792.84,637.46h4.74c3.21,0,5.49,1.67,5.49,4.6s-2.27,4.51-5.49,4.51h-2.35v6.67h-2.39Zm4.74,6.87c2.14,0,3.11-.8,3.11-2.27s-1-2.36-3.11-2.36h-2.35v4.63Z" transform="translate(-157.51 -346.55)"/><path d="M806.15,637.46h2.4v15.78h-2.4Z" transform="translate(-157.51 -346.55)"/><path d="M824.7,637.46v15.78h-2.42l-7-11.84v11.84h-2.31V637.46h2.41l7,11.79V637.46Z" transform="translate(-157.51 -346.55)"/><path d="M828,645.34c0-4.44,2.41-8.12,7.49-8.12a6.92,6.92,0,0,1,6.73,4.45l-2.14.89a4.51,4.51,0,0,0-4.61-3.24c-3.49,0-5.09,2.66-5.09,5.92s1.52,6.06,5.09,6.06c2.6,0,4.39-1.42,4.58-4.1l.06-.42h-3.66v-1.94h6v8.4h-1.91l-.22-2.42a5.32,5.32,0,0,1-4.88,2.63C830.46,653.45,828,649.78,828,645.34Z" transform="translate(-157.51 -346.55)"/></svg>