<svg id="Capa_1" data-name="Capa 1" xmlns="http://www.w3.org/2000/svg" viewBox="0 0 214.99 255.07"><defs><style>.cls-1,.cls-2{fill:#2b2b2b;}.cls-2{fill-rule:evenodd;}</style></defs><rect class="cls-1" x="277.32" y="233.6" width="36.65" height="123.7" rx="1.53" transform="translate(-142.3 468.63) rotate(-90)"/><rect class="cls-1" x="277.32" y="297.36" width="36.65" height="123.7" rx="1.53" transform="translate(-206.07 532.4) rotate(-90)"/><path class="cls-1" d="M206.68,256.19V375.24c0,1.27-2.12,2.3-4.74,2.3H172.07c-2.61,0-4.73-1-4.73-2.3v-119c0-1.27,2.12-2.29,4.73-2.29h29.87C204.56,253.9,206.68,254.92,206.68,256.19Z" transform="translate(-142.5 -122.46)"/><path class="cls-1" d="M352.31,122.46H326.37c-2.86,0-5.19,1.16-5.19,2.6v30.52c0,21,.09,38.91,1.91,54.59h-.43c-2.61-6.53-31.18-65.67-42.25-85.81-.62-1.12-2.66-1.9-5-1.9H239c-2.87,0-5.19,1.16-5.19,2.6v1.57c.71.88,1.4,1.79,2.07,2.72h0l.21.29.06.09a59.53,59.53,0,0,1,6.51,11.88l0,.08q.18.42.33.84c.08.19.15.37.22.56l.13.36c0,.11.09.22.13.34h0a59.24,59.24,0,0,1,3.33,24.84l.07-.06c-.13,1.5-.33,3-.59,4.47l0,.17h0c-1.89,10.68-6.89,20.7-12.47,30.42v43.78c0,1.43,2.32,2.59,5.19,2.59h26.27c2.86,0,5.19-1.16,5.19-2.59V215.12c0-22.93.15-40.22-1.71-55.66h.38c2.45,5.16,34,70.15,43.54,88.6.59,1.15,2.65,1.94,5,1.94h34.63c2.86,0,5.19-1.16,5.19-2.59V125.06C357.5,123.62,355.17,122.46,352.31,122.46Z" transform="translate(-142.5 -122.46)"/><path class="cls-2" d="M167.35,227.12c-2.3-11.76-10.86-23-17.29-35.06A45.31,45.31,0,0,1,142.5,167v0h0c0-.36,0-.73,0-1.1v-.11c0-.33,0-.65,0-1v-.21q0-.45.06-.9v-.21c0-.31.05-.62.08-.94l0-.16c0-.33.07-.65.11-1h0a44.53,44.53,0,0,1,80.4-20.32h0l.16.22,0,.07a43.7,43.7,0,0,1,4.83,8.81l0,.06.24.62c0,.14.11.28.16.41l.1.27.09.25h0a43.74,43.74,0,0,1,2.47,18.42l.06,0c-.1,1.11-.25,2.22-.44,3.31l0,.13h0c-3.45,19.46-20.82,35.95-24.25,53.5Z" transform="translate(-142.5 -122.46)"/><rect class="cls-1" x="25.1" y="114.57" width="38.86" height="6.95" rx="0.3"/></svg>