<svg id="Capa_1" data-name="Capa 1" xmlns="http://www.w3.org/2000/svg" viewBox="0 0 685.97 74.62"><defs><style>.cls-1{fill:currentColor;stroke:currentColor;stroke-miterlimit:10;}</style></defs><polygon class="cls-1" points="0.5 4.92 12.92 4.92 12.92 74.13 17.34 74.13 17.34 4.92 29.76 4.92 29.76 0.5 0.5 0.5 0.5 4.92"/><path class="cls-1" d="M246.75,503.19a15.62,15.62,0,0,0-15.52,15.51v58.11h4.42V550.19h11.1a11.18,11.18,0,0,1,11.1,11.11v15.51h4.42V561.3a14.87,14.87,0,0,0-4.6-10.92,17.46,17.46,0,0,0-2.94-2.37,16.31,16.31,0,0,0,2.93-2.36,14.92,14.92,0,0,0,4.61-11v-16a15.71,15.71,0,0,0-15.52-15.51Zm11.1,31.49a10.78,10.78,0,0,1-3.26,7.87,11,11,0,0,1-7.84,3.23h-11.1V518.7a10.87,10.87,0,0,1,3.22-7.82,11.13,11.13,0,0,1,19,7.82Z" transform="translate(-197.01 -502.69)"/><path class="cls-1" d="M300.44,561.3a10.77,10.77,0,0,1-3.26,7.86,11.07,11.07,0,0,1-18.94-7.86V503.19h-4.42V561.3a15.52,15.52,0,0,0,31,0V503.19h-4.42Z" transform="translate(-197.01 -502.69)"/><path class="cls-1" d="M331.93,503.19a15.62,15.62,0,0,0-15.52,15.51v16a15,15,0,0,0,4.55,11,17.13,17.13,0,0,0,2.93,2.36,16.92,16.92,0,0,0-2.93,2.37,15.48,15.48,0,1,0,26.49,10.92V560H343v1.33a10.77,10.77,0,0,1-3.26,7.86,11.11,11.11,0,0,1-15.72-15.69,10.75,10.75,0,0,1,7.88-3.28h12v-4.41h-12a11,11,0,0,1-11.1-11.1v-16a10.87,10.87,0,0,1,3.22-7.82,11.13,11.13,0,0,1,19,7.82v8.42h4.42V518.7a15.71,15.71,0,0,0-15.52-15.51Z" transform="translate(-197.01 -502.69)"/><path class="cls-1" d="M395.81,503.19A15.6,15.6,0,0,0,380.3,518.7v42.6a15.52,15.52,0,0,0,31,0v-8.42h-4.41v8.42a10.77,10.77,0,0,1-3.26,7.86,11.08,11.08,0,0,1-19-7.86V518.7a10.91,10.91,0,0,1,3.22-7.82,11.14,11.14,0,0,1,19,7.82v8.42h4.41V518.7a15.69,15.69,0,0,0-15.52-15.51Z" transform="translate(-197.01 -502.69)"/><path class="cls-1" d="M438.4,503.19a15.6,15.6,0,0,0-15.51,15.51v42.6a15.52,15.52,0,0,0,31,0V518.7a15.69,15.69,0,0,0-15.52-15.51Zm11.11,58.11a10.77,10.77,0,0,1-3.26,7.86,11.08,11.08,0,0,1-18.95-7.86V518.7a10.91,10.91,0,0,1,3.22-7.82,11.14,11.14,0,0,1,19,7.82Z" transform="translate(-197.01 -502.69)"/><polygon class="cls-1" points="272.88 0.5 268.46 0.5 268.46 74.13 292.4 74.13 292.4 69.71 272.88 69.71 272.88 0.5"/><path class="cls-1" d="M509.39,503.19a15.62,15.62,0,0,0-15.52,15.51v42.6a15.52,15.52,0,0,0,31,0V518.7a15.71,15.71,0,0,0-15.52-15.51Zm11.1,58.11a10.77,10.77,0,0,1-3.26,7.86,11.07,11.07,0,0,1-18.94-7.86V518.7a11.08,11.08,0,0,1,11.1-11.1,11.18,11.18,0,0,1,11.1,11.1Z" transform="translate(-197.01 -502.69)"/><path class="cls-1" d="M552,503.19a15.62,15.62,0,0,0-15.52,15.51v58.11h4.42V550.19H552a11.18,11.18,0,0,1,11.1,11.11v15.51h4.42V561.3a14.84,14.84,0,0,0-4.61-10.92A17,17,0,0,0,560,548a16.67,16.67,0,0,0,2.93-2.36,14.92,14.92,0,0,0,4.61-11v-16A15.71,15.71,0,0,0,552,503.19Zm11.1,31.49a10.78,10.78,0,0,1-3.26,7.87,11,11,0,0,1-7.84,3.23h-11.1V518.7a10.92,10.92,0,0,1,3.21-7.82,11.13,11.13,0,0,1,19,7.82Z" transform="translate(-197.01 -502.69)"/><path class="cls-1" d="M594.57,503.19a15.62,15.62,0,0,0-15.52,15.51v8a15.53,15.53,0,0,0,15.52,15.52,11.17,11.17,0,0,1,11.1,11.1v8a10.81,10.81,0,0,1-3.26,7.87,11.08,11.08,0,0,1-18.94-7.87v-8.42h-4.42v8.42a15.52,15.52,0,0,0,31,0v-8a15.73,15.73,0,0,0-15.52-15.52,11,11,0,0,1-11.1-11.1v-8a10.92,10.92,0,0,1,3.21-7.82,11.13,11.13,0,0,1,19,7.82v8.42h4.42V518.7a15.71,15.71,0,0,0-15.52-15.51Z" transform="translate(-197.01 -502.69)"/><path class="cls-1" d="M658.45,503.19a15.6,15.6,0,0,0-15.51,15.51v8a15.52,15.52,0,0,0,15.51,15.52,11.18,11.18,0,0,1,11.11,11.1v8a10.81,10.81,0,0,1-3.26,7.87,11.08,11.08,0,0,1-18.95-7.87v-8.42h-4.41v8.42a15.52,15.52,0,0,0,31,0v-8a15.71,15.71,0,0,0-15.52-15.52,11,11,0,0,1-11.1-11.1v-8a10.93,10.93,0,0,1,3.22-7.82,11.14,11.14,0,0,1,19,7.82v8.42H674V518.7a15.69,15.69,0,0,0-15.52-15.51Z" transform="translate(-197.01 -502.69)"/><polygon class="cls-1" points="481.41 4.92 493.83 4.92 493.83 74.13 498.25 74.13 498.25 4.92 510.67 4.92 510.67 0.5 481.41 0.5 481.41 4.92"/><path class="cls-1" d="M742.31,534.68a10.78,10.78,0,0,1-3.26,7.87,11.08,11.08,0,0,1-18.94-7.87V503.19h-4.42v31.49A15.62,15.62,0,0,0,729,550.08v26.73h4.42V550.08a14.69,14.69,0,0,0,8.7-4.43,14.92,14.92,0,0,0,4.61-11V503.19h-4.42Z" transform="translate(-197.01 -502.69)"/><polygon class="cls-1" points="565.69 0.5 561.27 0.5 561.27 74.13 585.21 74.13 585.21 69.71 565.69 69.71 565.69 0.5"/><rect class="cls-1" x="593.21" y="0.5" width="4.42" height="73.62"/><path class="cls-1" d="M821.72,503.19A15.6,15.6,0,0,0,806.2,518.7v58.11h4.41V518.7a10.93,10.93,0,0,1,3.22-7.82,11.14,11.14,0,0,1,19,7.82v58.11h4.41V518.7a15.69,15.69,0,0,0-15.51-15.51Z" transform="translate(-197.01 -502.69)"/><path class="cls-1" d="M882.49,545.78h-23v4.41h12a4.18,4.18,0,0,1,4,4v7.1a10.81,10.81,0,0,1-3.26,7.87,11.09,11.09,0,0,1-18.95-7.87V518.7a10.93,10.93,0,0,1,3.22-7.82,11.14,11.14,0,0,1,19,7.82v8.42h4.41V518.7a15.52,15.52,0,0,0-31,0v42.6a15.5,15.5,0,0,0,15.52,15.51,14.87,14.87,0,0,0,10.87-4.51c.22-.2.43-.4.63-.61l.64,5.12h4.35l-1-15.51v-7.1a8.11,8.11,0,0,0-1-4h3.69Z" transform="translate(-197.01 -502.69)"/></svg>