<svg id="Capa_1" data-name="Capa 1" xmlns="http://www.w3.org/2000/svg" viewBox="0 0 355.54 383.65"><defs><style>.cls-1{stroke:#000;stroke-miterlimit:10;}</style></defs><polygon points="48.48 53.25 61.89 53.25 61.89 127.96 66.66 127.96 66.66 53.25 80.07 53.25 80.07 48.48 48.48 48.48 48.48 53.25"/><path d="M423.86,356.66a16.85,16.85,0,0,0-16.75,16.75v62.72h4.76V407.4h12a12.05,12.05,0,0,1,12,12v16.75h4.77V419.38a16.05,16.05,0,0,0-5-11.78,18.83,18.83,0,0,0-3.17-2.56,17.61,17.61,0,0,0,3.16-2.54,16.13,16.13,0,0,0,5-11.85V373.41a17,17,0,0,0-16.75-16.75Zm0,4.77a12.05,12.05,0,0,1,12,12v17.24a11.63,11.63,0,0,1-3.52,8.49,11.77,11.77,0,0,1-8.46,3.49h-12V373.41a11.76,11.76,0,0,1,3.48-8.45A11.61,11.61,0,0,1,423.86,361.43Z" transform="translate(-322.23 -308.18)"/><path d="M481.81,419.38a11.66,11.66,0,0,1-3.51,8.5,12,12,0,0,1-20.45-8.5V356.66h-4.77v62.72a16.75,16.75,0,0,0,33.5,0V356.66h-4.77Z" transform="translate(-322.23 -308.18)"/><path d="M532.55,382.5v-9.09a16.75,16.75,0,0,0-33.5,0v17.24A16.18,16.18,0,0,0,504,402.49a17.64,17.64,0,0,0,3.17,2.55A18.34,18.34,0,0,0,504,407.6a16.71,16.71,0,1,0,28.59,11.78V418h-4.76v1.42a11.67,11.67,0,0,1-3.52,8.5,12,12,0,0,1-17-16.95,11.68,11.68,0,0,1,8.51-3.53h12.92v-4.77H515.8a11.87,11.87,0,0,1-12-12V373.41a11.79,11.79,0,0,1,3.47-8.45,12,12,0,0,1,20.5,8.45v9.09Z" transform="translate(-322.23 -308.18)"/><path d="M388.17,460.26a17.16,17.16,0,0,0-12.34,5A15.8,15.8,0,0,0,370.71,477v46a15.87,15.87,0,0,0,5.12,11.84,17.9,17.9,0,0,0,24.62,0A15.8,15.8,0,0,0,405.63,523V513.9h-5V523a11.38,11.38,0,0,1-3.66,8.49,13,13,0,0,1-17.68,0,11.59,11.59,0,0,1-3.64-8.52V477a11.56,11.56,0,0,1,3.62-8.45,12.83,12.83,0,0,1,17.68,0,11.34,11.34,0,0,1,3.68,8.45v9.09h5V477a15.69,15.69,0,0,0-5.17-11.77A17.08,17.08,0,0,0,388.17,460.26Z" transform="translate(-322.23 -308.18)"/><path d="M436.1,460.26a17.18,17.18,0,0,0-12.35,5A15.83,15.83,0,0,0,418.64,477v46a15.9,15.9,0,0,0,5.11,11.84,17.9,17.9,0,0,0,24.62,0A15.78,15.78,0,0,0,453.56,523V477a15.69,15.69,0,0,0-5.17-11.77A17.09,17.09,0,0,0,436.1,460.26Zm0,74.71a12.63,12.63,0,0,1-8.86-3.46,11.62,11.62,0,0,1-3.63-8.52V477a11.56,11.56,0,0,1,3.62-8.45,12.83,12.83,0,0,1,17.68,0,11.37,11.37,0,0,1,3.68,8.45v46a11.39,11.39,0,0,1-3.67,8.49A12.54,12.54,0,0,1,436.1,535Z" transform="translate(-322.23 -308.18)"/><polygon points="149.31 152.09 144.34 152.09 144.34 231.56 171.27 231.56 171.27 226.79 149.31 226.79 149.31 152.09"/><path d="M516,460.26a17.18,17.18,0,0,0-12.35,5A15.84,15.84,0,0,0,498.51,477v46a15.91,15.91,0,0,0,5.12,11.84,17.9,17.9,0,0,0,24.62,0A15.81,15.81,0,0,0,533.44,523V477a15.73,15.73,0,0,0-5.17-11.77A17.11,17.11,0,0,0,516,460.26ZM516,535a12.61,12.61,0,0,1-8.86-3.46,11.63,11.63,0,0,1-3.64-8.52V477a11.56,11.56,0,0,1,3.62-8.45,12.83,12.83,0,0,1,17.68,0,11.35,11.35,0,0,1,3.69,8.45v46a11.39,11.39,0,0,1-3.67,8.49A12.57,12.57,0,0,1,516,535Z" transform="translate(-322.23 -308.18)"/><path d="M563.9,460.26a17.16,17.16,0,0,0-12.34,5A15.8,15.8,0,0,0,546.44,477v62.73h5V511H563.9a12.31,12.31,0,0,1,8.81,3.54,11.34,11.34,0,0,1,3.68,8.45v16.75h5V523a15.72,15.72,0,0,0-5.18-11.79,18.82,18.82,0,0,0-3.3-2.55,18.86,18.86,0,0,0,3.3-2.55,15.79,15.79,0,0,0,5.18-11.85V477a15.69,15.69,0,0,0-5.17-11.77A17.08,17.08,0,0,0,563.9,460.26Zm0,4.77a12.35,12.35,0,0,1,8.81,3.53,11.37,11.37,0,0,1,3.68,8.45v17.24a11.39,11.39,0,0,1-3.66,8.5,12.62,12.62,0,0,1-8.83,3.49H551.41V477a11.56,11.56,0,0,1,3.62-8.45A12.42,12.42,0,0,1,563.9,465Z" transform="translate(-322.23 -308.18)"/><path d="M629.29,486.1V477a15.69,15.69,0,0,0-5.17-11.77,17.74,17.74,0,0,0-24.64,0A15.83,15.83,0,0,0,594.37,477v8.62a15.9,15.9,0,0,0,5.11,11.85,17.28,17.28,0,0,0,12.35,4.9,12.33,12.33,0,0,1,8.81,3.54,11.34,11.34,0,0,1,3.68,8.45V523a11.39,11.39,0,0,1-3.67,8.49,13,13,0,0,1-17.68,0,11.62,11.62,0,0,1-3.63-8.52V513.9h-5V523a15.9,15.9,0,0,0,5.11,11.84,17.9,17.9,0,0,0,24.62,0A15.81,15.81,0,0,0,629.29,523v-8.62a15.71,15.71,0,0,0-5.17-11.78,17.08,17.08,0,0,0-12.29-5,12.63,12.63,0,0,1-8.86-3.46,11.64,11.64,0,0,1-3.63-8.53V477a11.56,11.56,0,0,1,3.62-8.45,12.83,12.83,0,0,1,17.68,0,11.37,11.37,0,0,1,3.68,8.45v9.09Z" transform="translate(-322.23 -308.18)"/><path d="M387.46,563.87a16.87,16.87,0,0,0-16.75,16.75v8.62A16.76,16.76,0,0,0,387.46,606a12.05,12.05,0,0,1,12,12v8.62a11.66,11.66,0,0,1-3.51,8.5,12,12,0,0,1-20.45-8.5V617.5h-4.77v9.09a16.75,16.75,0,0,0,33.5,0V618a17,17,0,0,0-16.75-16.75,11.87,11.87,0,0,1-12-12v-8.62a11.79,11.79,0,0,1,3.47-8.45,12,12,0,0,1,20.49,8.45v9.09h4.77v-9.09a17,17,0,0,0-16.75-16.75Z" transform="translate(-322.23 -308.18)"/><polygon points="86.79 260.46 100.2 260.46 100.2 335.17 104.97 335.17 104.97 260.46 118.38 260.46 118.38 255.69 86.79 255.69 86.79 260.46"/><path d="M478,597.86a11.59,11.59,0,0,1-3.52,8.49A11.95,11.95,0,0,1,454,597.86v-34h-4.77v34a16.19,16.19,0,0,0,4.9,11.83,15.92,15.92,0,0,0,9.47,4.79v28.86h4.76V614.48a15.9,15.9,0,0,0,9.4-4.77,16.12,16.12,0,0,0,5-11.85v-34H478Z" transform="translate(-322.23 -308.18)"/><polygon points="177.76 255.69 173 255.69 173 335.17 198.83 335.17 198.83 330.4 177.76 330.4 177.76 255.69"/><rect x="207.47" y="255.69" width="4.77" height="79.47"/><path d="M563.69,563.87a16.87,16.87,0,0,0-16.75,16.75v62.72h4.77V580.62a11.79,11.79,0,0,1,3.47-8.45,12,12,0,0,1,20.5,8.45v62.72h4.76V580.62a17,17,0,0,0-16.75-16.75Z" transform="translate(-322.23 -308.18)"/><path d="M629.29,609.84H604.41v4.77h12.92a4.52,4.52,0,0,1,4.32,4.32v7.66a11.67,11.67,0,0,1-3.52,8.5,12.11,12.11,0,0,1-17,0,11.92,11.92,0,0,1-3.49-8.53v-46a11.76,11.76,0,0,1,3.48-8.45,12,12,0,0,1,20.49,8.45v9.09h4.77v-9.09a16.75,16.75,0,0,0-33.5,0v46a16.7,16.7,0,0,0,28.49,11.88c.23-.21.46-.43.67-.66l.69,5.53h4.7l-1.05-16.75v-7.66a8.74,8.74,0,0,0-1.11-4.32h4Z" transform="translate(-322.23 -308.18)"/><path class="cls-1" d="M545.49,399a11.7,11.7,0,0,1,6.42,3.58c1.68,1.93,1.86,4.7,3.59,6.42a12,12,0,0,0,2.93,2.13,6.67,6.67,0,0,0,3.36,1c1.18,0,1.7-1.19,1.8-2.36a17.68,17.68,0,0,0-.07-3.63c-.54-4.89-1.43-9.8-1.86-14.76a82.24,82.24,0,0,1-.14-15,59.3,59.3,0,0,1,9.82-28.18,63.76,63.76,0,0,1,4.62-6,27.22,27.22,0,0,1,5.71-5.17,10.23,10.23,0,0,1,3.82-1.53,6.51,6.51,0,0,1,4.29.78,9.47,9.47,0,0,1,3,2.89,19.46,19.46,0,0,1,1.87,3.47c.51,1.19.92,2.41,1.3,3.6l.53,1.86c.13.64.3,1.26.39,1.91a21.48,21.48,0,0,1,.3,3.93,28.84,28.84,0,0,1-.36,3.86,63.37,63.37,0,0,0-1,7.23,24.89,24.89,0,0,0,.06,3.56c.06.58.07,1.18.17,1.76l.3,1.75a24.63,24.63,0,0,0,2.46,6.59c1.11,2.11,2.6,4.05,3.75,6.55a9.5,9.5,0,0,1,.76,4.27,10.3,10.3,0,0,1-.49,2.11l-.36,1-.49.9a20.8,20.8,0,0,1-5.21,6A53.9,53.9,0,0,1,583.54,407a64.1,64.1,0,0,1-7.19,2.45c-1.2.34-2.41.65-3.55,1a8.58,8.58,0,0,0-2.84,1.25,1.31,1.31,0,0,0-.45.72,1.5,1.5,0,0,0,.27.86,30.88,30.88,0,0,0,2,2.89c1.48,2,2.94,4,4.33,6.12.7,1,1.39,2.07,2.07,3.15.33.54.67,1.08,1,1.68a7.79,7.79,0,0,1,.48,1,4.61,4.61,0,0,1,.21.7,2.39,2.39,0,0,1,0,.59,1.82,1.82,0,0,1-.07.44,2.16,2.16,0,0,1-.29.59,1.82,1.82,0,0,1-1.15.69,3.49,3.49,0,0,1-.42,0l-.29,0a4.32,4.32,0,0,1-.74-.21c-.39-.16-.69-.32-1-.48-.6-.33-1.15-.67-1.69-1-1.09-.71-2.1-1.43-3.11-2.15-2-1.46-4.06-2.95-6-4.64a23.45,23.45,0,0,1-2.8-2.83,6.52,6.52,0,0,1-1.18-2.09,2.85,2.85,0,0,1,0-1.83,2.7,2.7,0,0,1,1.29-1.46,6.33,6.33,0,0,1,2.37-.61,15.51,15.51,0,0,1,2,0,38.36,38.36,0,0,1,3.88.43,31.35,31.35,0,0,1,7.43,2.28c4.77,2.09,8.77,5.31,12.78,8a27.25,27.25,0,0,0,6.25,3.26,14.9,14.9,0,0,0,6.72.71A21,21,0,0,0,616,422a19.93,19.93,0,0,0,4-5.65,16.34,16.34,0,0,0,1.46-6.69,18.38,18.38,0,0,0-1.21-6.8,15.3,15.3,0,0,0-1.56-3,10.88,10.88,0,0,0-1-1.28,4.26,4.26,0,0,0-.58-.55,6.79,6.79,0,0,0-.68-.56,5.6,5.6,0,0,1-1.55-1.79,4,4,0,0,1-.35-2.63,7.56,7.56,0,0,1,2.43-3.65c.94-.9,1.93-1.68,2.74-2.47a6.37,6.37,0,0,0,1.64-2.62c.58-2,0-4.4-.43-6.82a59.48,59.48,0,0,1-1-7.49,47.78,47.78,0,0,1,1.44-15c.28-1.21.59-2.41.81-3.57s.31-2.34-.18-2.89a2.2,2.2,0,0,0-1.07-.72,5.25,5.25,0,0,0-1.56-.23,12.89,12.89,0,0,0-3.42.54,28.15,28.15,0,0,0-3.4,1.22,28.47,28.47,0,0,0-3.29,1.59l-1.6.87a9.5,9.5,0,0,0-1.56.94l-3,2.07c-7.76,6-13.94,13.89-19.14,22.27a143.58,143.58,0,0,0-7.19,13c-2.22,4.43-4.25,8.95-6.14,13.54a168.89,168.89,0,0,1,12.65-26.92c5-8.54,11.09-16.68,18.92-23,1-.74,2-1.46,3.08-2.19a12,12,0,0,1,1.61-1l1.65-.92a31.33,31.33,0,0,1,3.38-1.69,28.93,28.93,0,0,1,3.58-1.34,14.53,14.53,0,0,1,3.89-.66,5,5,0,0,1,4.06,1.61,3.17,3.17,0,0,1,.57,1.11,6.69,6.69,0,0,1,.17,1.14,11.91,11.91,0,0,1-.17,2c-.23,1.28-.52,2.48-.79,3.69A45.82,45.82,0,0,0,622,369.83a58.14,58.14,0,0,0,1.12,7.22c.24,1.22.51,2.44.67,3.75a10.57,10.57,0,0,1-.18,4.13,8.74,8.74,0,0,1-2.19,3.65c-1,1-1.91,1.72-2.74,2.55a5.45,5.45,0,0,0-1.69,2.41c-.14.66.19,1.31,1,1.94.19.14.5.38.76.61a6.79,6.79,0,0,1,.78.73,14,14,0,0,1,1.3,1.6,18.46,18.46,0,0,1,1.85,3.55,21,21,0,0,1,1.41,7.75,18.86,18.86,0,0,1-1.65,7.74,22.72,22.72,0,0,1-4.51,6.43,23.76,23.76,0,0,1-13.65,7.31,17.81,17.81,0,0,1-7.94-.8,30.32,30.32,0,0,1-6.92-3.55c-4.19-2.82-8-5.85-12.39-7.73a27.67,27.67,0,0,0-6.75-2c-1.17-.13-2.34-.36-3.51-.38a13.13,13.13,0,0,0-1.67,0,3.7,3.7,0,0,0-1.23.27c-.1.06,0,0,.07-.13s0-.14.05,0a3.78,3.78,0,0,0,.67,1.1,20,20,0,0,0,2.44,2.43c1.81,1.57,3.79,3,5.79,4.44,1,.72,2,1.44,3,2.09.5.33,1,.64,1.49.91a5.13,5.13,0,0,0,.67.33l.15,0h-.06a.68.68,0,0,0-.19,0,1.21,1.21,0,0,0-.76.46,1.13,1.13,0,0,0-.19.38c0,.1,0,.14,0,.21a.66.66,0,0,0,0,.14,1.62,1.62,0,0,0-.06-.19c-.08-.19-.2-.44-.33-.68-.26-.5-.57-1-.89-1.52-.64-1-1.32-2.06-2-3.08-1.36-2.05-2.77-4-4.23-6a32.14,32.14,0,0,1-2.2-3.25,5.48,5.48,0,0,1-.47-1.16,3.51,3.51,0,0,1-.08-1.52,4,4,0,0,1,1.41-2.42,10.9,10.9,0,0,1,3.88-1.8c1.23-.37,2.43-.67,3.61-1a62.75,62.75,0,0,0,6.9-2.31,51.25,51.25,0,0,0,12.59-7,18,18,0,0,0,4.57-5.11l.4-.73.27-.75a5.47,5.47,0,0,0-.17-4.48c-.91-2-2.42-4.07-3.62-6.35a27.53,27.53,0,0,1-2.69-7.31l-.31-1.92c-.11-.64-.12-1.29-.18-1.93a26.32,26.32,0,0,1-.05-3.87,60.32,60.32,0,0,1,1.05-7.49,21,21,0,0,0,.17-7c-.08-.58-.23-1.15-.34-1.73l-.46-1.72c-.36-1.18-.73-2.32-1.18-3.41-.89-2.16-2.1-4.3-3.86-5.35s-4-.6-5.91.63a25.39,25.39,0,0,0-5.33,4.71,62.35,62.35,0,0,0-4.55,5.72A57.73,57.73,0,0,0,563,376.57a81.39,81.39,0,0,0-.2,14.73c.32,4.93,1.09,9.81,1.53,14.78a18.58,18.58,0,0,1,0,3.8,4.39,4.39,0,0,1-.64,1.89,2.27,2.27,0,0,1-1.81,1,7,7,0,0,1-3.67-1.12,12.17,12.17,0,0,1-3-2.3c-1.8-1.94-1.86-4.68-3.44-6.58A11.6,11.6,0,0,0,545.49,399Z" transform="translate(-322.23 -308.18)"/><path d="M660.65,691.82H339.35a17.14,17.14,0,0,1-17.12-17.12V325.3a17.14,17.14,0,0,1,17.12-17.12h321.3a17.14,17.14,0,0,1,17.12,17.12V674.7A17.14,17.14,0,0,1,660.65,691.82ZM339.35,311.77a13.54,13.54,0,0,0-13.52,13.53V674.7a13.54,13.54,0,0,0,13.52,13.53h321.3a13.54,13.54,0,0,0,13.52-13.53V325.3a13.54,13.54,0,0,0-13.52-13.53Z" transform="translate(-322.23 -308.18)"/></svg>